<mxfile host="www.draw.io" modified="2023-04-10T17:51:07.647Z" agent="Mozilla/5.0 (Windows NT 10.0; Win64; x64) AppleWebKit/537.36 (KHTML, like Gecko) Chrome/112.0.0.0 Safari/537.36 Edg/112.0.1722.34" etag="umrh8IIbEji9FI-CM9n_" version="21.1.5" type="device">
  <diagram name="Страница 1" id="VR9b5c0uNBycUm2Y_qzf">
    <mxGraphModel dx="1149" dy="766" grid="1" gridSize="10" guides="1" tooltips="1" connect="1" arrows="1" fold="1" page="1" pageScale="1" pageWidth="827" pageHeight="1169" math="0" shadow="0">
      <root>
        <mxCell id="0" />
        <mxCell id="1" parent="0" />
        <mxCell id="g_v4_KeoaxMvuzXNRhNN-4" style="edgeStyle=orthogonalEdgeStyle;rounded=0;orthogonalLoop=1;jettySize=auto;html=1;exitX=0.5;exitY=1;exitDx=0;exitDy=0;entryX=0.5;entryY=0;entryDx=0;entryDy=0;" edge="1" parent="1" source="g_v4_KeoaxMvuzXNRhNN-1" target="g_v4_KeoaxMvuzXNRhNN-2">
          <mxGeometry relative="1" as="geometry" />
        </mxCell>
        <mxCell id="g_v4_KeoaxMvuzXNRhNN-1" value="Start&lt;br&gt;" style="rounded=1;whiteSpace=wrap;html=1;arcSize=49;" vertex="1" parent="1">
          <mxGeometry x="354" y="40" width="116" height="60" as="geometry" />
        </mxCell>
        <mxCell id="g_v4_KeoaxMvuzXNRhNN-6" style="edgeStyle=orthogonalEdgeStyle;rounded=0;orthogonalLoop=1;jettySize=auto;html=1;exitX=0.5;exitY=1;exitDx=0;exitDy=0;entryX=0.5;entryY=0;entryDx=0;entryDy=0;" edge="1" parent="1" source="g_v4_KeoaxMvuzXNRhNN-2" target="g_v4_KeoaxMvuzXNRhNN-5">
          <mxGeometry relative="1" as="geometry" />
        </mxCell>
        <mxCell id="g_v4_KeoaxMvuzXNRhNN-2" value="string[3] arr1&lt;br&gt;string arr2&lt;br&gt;int i = 0&lt;br&gt;int y = 0" style="shape=parallelogram;perimeter=parallelogramPerimeter;whiteSpace=wrap;html=1;fixedSize=1;" vertex="1" parent="1">
          <mxGeometry x="354" y="160" width="120" height="60" as="geometry" />
        </mxCell>
        <mxCell id="g_v4_KeoaxMvuzXNRhNN-8" value="Yes" style="edgeStyle=orthogonalEdgeStyle;rounded=0;orthogonalLoop=1;jettySize=auto;html=1;exitX=0.5;exitY=1;exitDx=0;exitDy=0;entryX=0.5;entryY=0;entryDx=0;entryDy=0;" edge="1" parent="1" source="g_v4_KeoaxMvuzXNRhNN-5" target="g_v4_KeoaxMvuzXNRhNN-7">
          <mxGeometry relative="1" as="geometry" />
        </mxCell>
        <mxCell id="g_v4_KeoaxMvuzXNRhNN-9" value="No" style="edgeStyle=orthogonalEdgeStyle;rounded=0;orthogonalLoop=1;jettySize=auto;html=1;exitX=1;exitY=0.5;exitDx=0;exitDy=0;" edge="1" parent="1" source="g_v4_KeoaxMvuzXNRhNN-5">
          <mxGeometry relative="1" as="geometry">
            <mxPoint x="520" y="310" as="targetPoint" />
          </mxGeometry>
        </mxCell>
        <mxCell id="g_v4_KeoaxMvuzXNRhNN-5" value="if( (i &amp;lt; 3)" style="rhombus;whiteSpace=wrap;html=1;" vertex="1" parent="1">
          <mxGeometry x="374" y="270" width="80" height="80" as="geometry" />
        </mxCell>
        <mxCell id="g_v4_KeoaxMvuzXNRhNN-11" value="No" style="edgeStyle=orthogonalEdgeStyle;rounded=0;orthogonalLoop=1;jettySize=auto;html=1;exitX=0;exitY=0.5;exitDx=0;exitDy=0;entryX=0.5;entryY=1;entryDx=0;entryDy=0;" edge="1" parent="1" source="g_v4_KeoaxMvuzXNRhNN-7" target="g_v4_KeoaxMvuzXNRhNN-10">
          <mxGeometry relative="1" as="geometry" />
        </mxCell>
        <mxCell id="g_v4_KeoaxMvuzXNRhNN-14" value="Yes" style="edgeStyle=orthogonalEdgeStyle;rounded=0;orthogonalLoop=1;jettySize=auto;html=1;exitX=0.5;exitY=1;exitDx=0;exitDy=0;entryX=0.5;entryY=1;entryDx=0;entryDy=0;" edge="1" parent="1" source="g_v4_KeoaxMvuzXNRhNN-7" target="g_v4_KeoaxMvuzXNRhNN-13">
          <mxGeometry relative="1" as="geometry" />
        </mxCell>
        <mxCell id="g_v4_KeoaxMvuzXNRhNN-7" value="if (arr1.length &amp;lt;= 3" style="rhombus;whiteSpace=wrap;html=1;" vertex="1" parent="1">
          <mxGeometry x="374" y="400" width="80" height="80" as="geometry" />
        </mxCell>
        <mxCell id="g_v4_KeoaxMvuzXNRhNN-12" style="edgeStyle=orthogonalEdgeStyle;rounded=0;orthogonalLoop=1;jettySize=auto;html=1;exitX=0.5;exitY=0;exitDx=0;exitDy=0;entryX=0;entryY=0.5;entryDx=0;entryDy=0;" edge="1" parent="1" source="g_v4_KeoaxMvuzXNRhNN-10" target="g_v4_KeoaxMvuzXNRhNN-5">
          <mxGeometry relative="1" as="geometry" />
        </mxCell>
        <mxCell id="g_v4_KeoaxMvuzXNRhNN-10" value="i +=1" style="rounded=0;whiteSpace=wrap;html=1;" vertex="1" parent="1">
          <mxGeometry x="250" y="350" width="120" height="60" as="geometry" />
        </mxCell>
        <mxCell id="g_v4_KeoaxMvuzXNRhNN-15" style="edgeStyle=orthogonalEdgeStyle;rounded=0;orthogonalLoop=1;jettySize=auto;html=1;exitX=0.5;exitY=0;exitDx=0;exitDy=0;entryX=0;entryY=0;entryDx=0;entryDy=0;" edge="1" parent="1" source="g_v4_KeoaxMvuzXNRhNN-13" target="g_v4_KeoaxMvuzXNRhNN-5">
          <mxGeometry relative="1" as="geometry" />
        </mxCell>
        <mxCell id="g_v4_KeoaxMvuzXNRhNN-13" value="arr2(y) = arr1(i)&lt;br&gt;i++&lt;br&gt;y++" style="rounded=0;whiteSpace=wrap;html=1;" vertex="1" parent="1">
          <mxGeometry x="80" y="350" width="120" height="60" as="geometry" />
        </mxCell>
        <mxCell id="g_v4_KeoaxMvuzXNRhNN-16" value="Finich" style="rounded=1;whiteSpace=wrap;html=1;arcSize=50;" vertex="1" parent="1">
          <mxGeometry x="680" y="280" width="120" height="60" as="geometry" />
        </mxCell>
        <mxCell id="g_v4_KeoaxMvuzXNRhNN-18" style="edgeStyle=orthogonalEdgeStyle;rounded=0;orthogonalLoop=1;jettySize=auto;html=1;exitX=1;exitY=0.5;exitDx=0;exitDy=0;entryX=-0.008;entryY=0.639;entryDx=0;entryDy=0;entryPerimeter=0;" edge="1" parent="1" source="g_v4_KeoaxMvuzXNRhNN-17" target="g_v4_KeoaxMvuzXNRhNN-16">
          <mxGeometry relative="1" as="geometry" />
        </mxCell>
        <mxCell id="g_v4_KeoaxMvuzXNRhNN-17" value="Print arr2" style="shape=document;whiteSpace=wrap;html=1;boundedLbl=1;" vertex="1" parent="1">
          <mxGeometry x="520" y="280" width="120" height="80" as="geometry" />
        </mxCell>
      </root>
    </mxGraphModel>
  </diagram>
</mxfile>
